<?xml version="1.0" standalone="no"?>
<!DOCTYPE svg PUBLIC "-//W3C//DTD SVG 20010904//EN"
 "http://www.w3.org/TR/2001/REC-SVG-20010904/DTD/svg10.dtd">
<svg version="1.0" xmlns="http://www.w3.org/2000/svg"
 width="512.000000pt" height="512.000000pt" viewBox="0 0 512.000000 512.000000"
 preserveAspectRatio="xMidYMid meet">

<g transform="translate(0.000000,512.000000) scale(0.100000,-0.100000)"
fill="#000000" stroke="none">
<path d="M2270 4323 l-76 -105 22 -67 c39 -116 84 -441 84 -611 0 -36 3 -75 6
-88 6 -22 9 -20 40 24 93 131 126 351 88 601 -16 108 -54 270 -76 322 l-13 30
-75 -106z"/>
<path d="M4077 3368 c-110 -132 -127 -157 -127 -188 0 -19 16 -244 35 -500 41
-540 59 -1109 53 -1643 l-4 -347 54 52 c67 67 138 172 163 244 11 30 24 99 29
152 27 299 19 1285 -15 1747 -18 242 -54 627 -59 632 -1 2 -60 -65 -129 -149z"/>
<path d="M2660 3431 l-51 -70 25 -49 c37 -73 66 -166 66 -212 0 -41 -26 -80
-52 -80 -28 1 -96 39 -116 65 -22 28 -65 156 -77 228 l-6 38 -48 -38 -47 -38
4 -105 c5 -124 -8 -168 -60 -200 -43 -26 -60 -25 -96 5 -38 32 -45 72 -33 195
5 52 7 97 6 99 -8 7 -114 -93 -119 -113 -17 -59 -18 -183 -2 -245 29 -114 87
-165 186 -165 85 0 189 59 226 127 10 17 13 16 65 -7 87 -41 174 -31 226 25
49 54 67 116 67 234 0 76 -6 129 -18 170 -24 81 -76 205 -86 205 -4 0 -31 -31
-60 -69z"/>
<path d="M3229 2605 c-58 -88 -108 -165 -111 -171 -4 -6 6 -66 22 -135 108
-468 171 -815 172 -955 1 -89 -2 -107 -23 -145 -30 -54 -75 -85 -146 -99 -157
-33 -305 54 -393 233 -56 113 -67 179 -85 512 -23 433 -45 641 -73 690 -6 12
-32 -18 -110 -123 l-101 -139 19 -164 c34 -280 60 -589 60 -693 -1 -141 -34
-207 -132 -257 -85 -43 -263 -63 -351 -38 -52 14 -106 64 -133 124 -23 49 -24
56 -24 366 l0 317 70 147 c39 82 68 150 66 153 -3 2 -33 -7 -68 -21 l-63 -25
-3 129 c-1 71 -5 129 -8 129 -3 0 -53 -42 -110 -92 l-104 -93 0 -78 0 -78 -31
-11 c-67 -23 -228 -108 -319 -168 -122 -80 -281 -239 -339 -337 -63 -106 -84
-179 -84 -293 -1 -76 4 -107 22 -152 74 -189 296 -275 566 -219 50 10 122 33
160 50 l70 32 14 -23 c8 -13 42 -50 76 -84 157 -157 361 -177 602 -58 63 31
114 66 162 110 43 40 72 60 76 53 15 -23 173 -133 245 -169 100 -50 170 -70
250 -70 241 0 422 150 475 394 23 105 16 301 -20 536 -22 145 -179 1032 -189
1065 -1 6 -50 -62 -107 -150z m-1631 -1082 l-3 -257 -50 -19 c-31 -12 -87 -21
-146 -25 -329 -17 -426 201 -173 387 72 52 200 120 285 150 98 35 90 56 87
-236z"/>
</g>
</svg>
