<?xml version="1.0" standalone="no"?>
<!DOCTYPE svg PUBLIC "-//W3C//DTD SVG 20010904//EN"
 "http://www.w3.org/TR/2001/REC-SVG-20010904/DTD/svg10.dtd">
<svg version="1.0" xmlns="http://www.w3.org/2000/svg"
 width="2000.000000pt" height="1975.000000pt" viewBox="0 0 2000.000000 1975.000000"
 preserveAspectRatio="xMidYMid meet">

<g transform="translate(0.000000,1975.000000) scale(0.100000,-0.100000)"
fill="#000000" stroke="none">
<path d="M10630 19737 c-75 -17 -136 -50 -193 -105 -62 -60 -68 -72 -184 -369
-101 -259 -115 -296 -257 -663 -48 -124 -91 -229 -95 -233 -5 -5 -22 48 -40
118 -97 389 -211 605 -396 753 -88 72 -203 138 -215 126 -5 -5 -36 -83 -69
-173 l-61 -164 22 -36 c12 -20 109 -124 215 -233 219 -222 241 -258 282 -434
76 -326 108 -418 167 -475 27 -27 43 -33 89 -37 47 -4 61 -1 94 21 44 30 78
92 86 157 3 25 10 88 16 140 26 237 87 517 150 695 82 233 214 425 292 425 10
0 48 -18 84 -40 60 -36 73 -40 132 -40 93 0 133 14 186 65 65 64 95 132 95
221 0 55 -5 81 -26 122 -58 117 -231 190 -374 159z"/>
<path d="M6247 19035 c-349 -57 -724 -293 -1052 -665 -425 -483 -792 -1173
-985 -1854 -60 -209 -51 -307 34 -364 138 -94 471 7 648 196 25 26 51 58 57
70 l12 22 -133 0 c-234 1 -333 27 -371 100 -38 72 -5 272 75 460 121 286 327
570 642 886 261 261 479 430 697 539 141 71 215 90 355 90 114 0 123 -2 180
-30 115 -59 162 -182 151 -389 -6 -96 -24 -237 -43 -328 -8 -38 15 -37 94 3
111 55 187 161 234 325 19 68 22 102 22 249 0 142 -4 185 -23 265 -48 200
-149 353 -270 408 -69 32 -192 38 -324 17z"/>
<path d="M14501 17965 c-1088 -231 -4012 -1515 -5871 -2578 -968 -553 -1631
-1017 -2041 -1427 -181 -181 -271 -297 -339 -435 -84 -170 -92 -287 -29 -406
61 -115 213 -256 369 -342 77 -42 206 -87 250 -87 l32 0 -4 193 c-3 180 -4
194 -27 233 -25 45 -63 70 -155 105 -105 39 -185 135 -231 277 -9 30 -13 57
-9 62 13 12 640 428 884 587 3078 2003 5517 3190 6968 3388 64 9 120 20 123
23 12 15 259 420 259 426 0 12 -65 5 -179 -19z"/>
<path d="M5775 17732 c-232 -70 -439 -269 -521 -502 -38 -109 -45 -266 -15
-373 40 -147 115 -263 251 -389 43 -40 117 -98 163 -128 84 -54 100 -76 79
-106 -4 -5 -374 -329 -822 -719 -2548 -2217 -2835 -2468 -2835 -2476 0 -5 23
-25 50 -45 l50 -35 20 28 c40 57 123 131 191 171 69 40 103 55 294 127 52 20
199 88 325 150 l230 114 240 187 c567 442 693 553 1160 1025 627 634 880 926
1185 1364 46 66 86 123 90 127 3 5 44 -3 90 -16 238 -67 274 -60 314 62 12 37
36 186 36 224 0 5 -43 8 -96 8 -95 0 -96 0 -90 23 81 282 117 488 117 669 0
263 -70 422 -219 495 -73 35 -197 42 -287 15z m108 -460 c68 -30 130 -93 163
-165 25 -55 28 -73 28 -162 0 -90 -3 -105 -27 -150 -55 -101 -56 -101 -132
-88 -109 19 -206 71 -295 161 -94 94 -134 170 -135 252 0 87 52 142 162 170
59 15 184 5 236 -18z"/>
<path d="M17315 16331 c-368 -61 -546 -264 -507 -577 28 -220 147 -448 338
-644 45 -47 87 -97 93 -112 12 -31 1 -47 -65 -100 -23 -18 -119 -101 -215
-183 -514 -445 -1006 -835 -2039 -1620 -896 -680 -1213 -925 -1206 -932 2 -2
68 17 146 43 177 59 537 236 810 399 681 407 1523 1032 2140 1590 185 167 444
435 539 558 69 89 87 107 109 107 35 0 84 -29 210 -123 225 -168 298 -193 376
-133 49 37 77 83 74 121 -3 25 -15 38 -78 79 -172 112 -400 295 -400 322 0 8
22 49 49 92 94 150 156 294 195 454 33 137 40 219 27 309 -35 225 -186 346
-441 354 -58 2 -127 0 -155 -4z m142 -316 c59 -18 106 -65 122 -122 25 -88 7
-242 -46 -401 -31 -96 -99 -242 -111 -242 -14 0 -152 121 -215 189 -73 79
-135 171 -160 235 -39 103 1 245 84 300 75 50 230 70 326 41z"/>
<path d="M11681 14544 c-31 -39 -44 -126 -44 -279 0 -199 24 -296 121 -506 58
-123 100 -249 117 -347 16 -88 20 -182 8 -182 -13 0 -216 111 -273 150 -83 56
-155 133 -187 199 l-28 56 -3 398 c-3 446 4 415 -80 377 -144 -65 -209 -188
-219 -415 -5 -105 3 -245 32 -548 6 -71 -11 -191 -35 -238 -31 -59 -90 -84
-182 -76 -163 14 -261 104 -309 283 -27 99 -31 330 -10 604 7 102 12 197 10
212 l-4 27 -75 -46 c-97 -58 -134 -94 -160 -155 -23 -53 -22 -49 -46 -433 -39
-615 22 -889 220 -993 45 -24 62 -27 146 -27 89 0 99 2 157 34 34 18 109 77
167 131 140 130 193 173 208 167 7 -2 60 -41 117 -87 180 -140 240 -164 399
-158 82 2 106 7 154 31 205 101 368 394 368 661 0 193 -118 573 -276 889 -67
134 -101 186 -163 250 -54 57 -96 64 -130 21z"/>
<path d="M8602 13168 c-5 -18 -64 -255 -132 -526 l-124 -493 23 -102 c46 -203
162 -593 531 -1777 155 -498 173 -561 284 -978 226 -844 385 -1548 442 -1952
11 -71 18 -187 19 -270 0 -139 -1 -149 -34 -243 -108 -311 -422 -730 -930
-1237 -1156 -1155 -2710 -2168 -3771 -2460 -221 -61 -318 -75 -530 -74 -185 0
-200 1 -285 27 -395 122 -676 477 -751 949 -13 78 -15 162 -11 420 4 307 5
329 30 433 90 374 259 826 473 1264 165 339 304 568 408 674 l54 55 -59 41
c-32 22 -61 41 -64 41 -41 0 -156 -163 -305 -430 -91 -162 -342 -658 -482
-948 -291 -608 -430 -1047 -500 -1581 -18 -134 -22 -219 -22 -446 -1 -308 6
-367 74 -577 41 -128 166 -374 247 -487 194 -270 484 -500 753 -596 179 -63
209 -67 550 -72 327 -5 416 1 600 38 518 106 1168 440 1855 954 718 537 1494
1292 1860 1810 27 39 81 106 120 150 152 172 241 302 490 715 98 162 201 329
229 370 50 73 161 200 176 200 4 0 10 -76 13 -169 12 -318 59 -745 122 -1119
200 -1175 600 -2172 1049 -2615 308 -304 1242 -792 1955 -1021 256 -83 448
-107 568 -71 143 42 224 171 267 426 21 119 38 408 34 564 l-3 130 -23 -43
c-17 -33 -27 -42 -40 -37 -22 8 -1884 1056 -1897 1067 -16 14 45 115 110 180
614 624 2802 1485 5140 2023 413 95 989 202 1365 254 314 44 752 81 952 81 63
0 79 3 87 18 29 56 473 1174 467 1179 -6 6 -193 13 -981 33 -231 5 -571 15
-755 20 -184 5 -517 14 -740 20 -223 6 -556 15 -740 20 -184 5 -513 14 -730
20 -511 13 -1410 37 -1855 50 -192 5 -537 15 -765 20 -228 6 -552 15 -720 20
-168 6 -359 10 -425 11 -66 1 -131 4 -145 8 -25 7 -24 7 25 56 124 121 344
258 705 440 339 170 595 285 1409 630 502 212 715 307 885 392 205 103 355
159 976 368 612 205 847 297 1144 448 508 258 763 535 805 874 25 202 -58 381
-287 616 -249 254 -598 497 -997 692 -440 215 -714 282 -980 242 -274 -42
-499 -160 -700 -368 -310 -320 -433 -764 -319 -1156 56 -195 176 -371 338
-498 63 -51 73 -62 64 -78 -24 -46 -214 -146 -563 -297 -707 -305 -920 -403
-1290 -587 -1390 -696 -2250 -1436 -2655 -2285 -71 -150 -210 -558 -210 -617
0 -55 29 -84 106 -108 54 -16 105 -18 569 -18 281 0 652 6 825 13 206 8 786
12 1683 12 l1368 0 -3 -82 -3 -82 -110 -23 c-371 -77 -913 -276 -1600 -586
-720 -325 -990 -488 -1237 -745 -241 -252 -376 -552 -417 -934 -6 -54 -11
-127 -11 -162 0 -62 -1 -66 -26 -72 -14 -4 -76 -4 -137 -2 -94 4 -124 10 -188
35 -295 116 -545 453 -708 955 -120 369 -149 630 -256 2263 -116 1780 -197
2492 -371 3295 -121 558 -192 772 -684 2065 -298 784 -453 1221 -475 1338 l-7
37 -94 0 -93 0 -9 -32z m7269 -2424 c221 -42 492 -188 659 -354 75 -75 150
-184 150 -217 0 -6 -39 -22 -87 -36 -49 -14 -182 -57 -296 -96 -238 -82 -359
-115 -475 -131 -69 -9 -86 -9 -111 5 -68 35 -209 241 -324 475 -66 132 -72
150 -72 206 0 53 4 67 25 89 56 60 109 73 301 74 96 1 176 -4 230 -15z"/>
<path d="M3135 12871 c-63 -26 -679 -308 -734 -336 -106 -55 -145 -99 -115
-129 41 -42 135 -13 527 165 364 165 432 201 453 241 17 33 17 33 -2 52 -17
17 -94 21 -129 7z"/>
<path d="M2986 11639 c-627 -649 -1143 -1178 -1148 -1177 -11 4 -430 570 -425
575 3 2 63 19 134 38 268 71 419 142 524 246 85 85 113 151 107 254 -5 79 -24
123 -88 202 -116 147 -440 314 -604 313 -90 -1 -177 -72 -216 -178 -26 -69
-50 -181 -50 -233 l0 -39 188 -1 c205 0 243 -7 276 -52 16 -22 21 -43 21 -97
0 -87 -10 -99 -129 -145 -143 -56 -272 -84 -449 -96 l-158 -11 -39 26 c-59 39
-199 184 -264 275 -57 79 -166 266 -166 285 0 5 64 5 146 1 l147 -7 -7 88
c-12 150 -11 148 -85 210 -210 176 -454 295 -650 319 l-54 6 6 -84 c10 -131
50 -267 116 -402 73 -148 157 -274 347 -520 80 -104 164 -216 186 -249 l40
-58 -25 -117 c-62 -278 -87 -516 -94 -901 -9 -490 14 -835 122 -1820 36 -325
69 -658 81 -814 l7 -90 19 25 c49 60 108 206 128 320 6 33 17 149 24 258 18
261 34 300 138 325 30 7 256 -16 387 -39 243 -42 281 -34 486 104 77 52 154
100 172 108 72 30 151 8 283 -76 96 -62 153 -76 256 -61 88 12 161 38 240 87
190 117 219 133 245 133 22 0 49 -19 114 -81 105 -98 146 -118 241 -119 62 0
81 5 142 35 83 42 189 137 266 239 30 41 63 76 71 80 37 14 126 -20 290 -108
l70 -38 105 4 c135 6 199 30 279 103 103 96 151 228 171 470 l11 136 -141 937
c-78 515 -150 996 -161 1067 -11 72 -28 189 -39 260 -11 72 -26 175 -35 230
-8 55 -15 103 -15 108 0 25 189 -13 286 -57 293 -134 540 -491 684 -988 175
-607 164 -1353 -25 -1743 -19 -38 -45 -83 -59 -100 l-24 -30 -6 45 c-23 161
-253 1804 -282 2020 -21 146 -40 269 -44 273 -4 4 -31 5 -60 1 l-53 -7 6 -191
c8 -220 30 -470 86 -956 22 -190 45 -399 51 -465 6 -66 13 -140 16 -165 3 -25
9 -207 14 -405 5 -198 14 -400 20 -450 79 -676 395 -1059 949 -1151 426 -70
1019 178 1316 549 56 70 172 273 162 283 -2 2 -114 -57 -248 -132 -282 -158
-501 -268 -578 -290 -46 -14 -69 -14 -160 -5 -136 14 -222 39 -341 97 -79 39
-109 62 -180 133 -135 136 -194 274 -194 451 0 142 30 229 117 345 77 103 189
175 344 221 82 25 106 27 340 33 248 6 252 6 277 30 54 50 20 137 -62 160 -58
17 -333 23 -492 12 -253 -19 -337 -56 -491 -219 -94 -98 -143 -181 -164 -274
-7 -35 -23 -87 -35 -116 -11 -30 -32 -125 -45 -212 -23 -150 -49 -245 -79
-285 -12 -16 -15 -8 -31 76 -25 139 -33 245 -23 329 11 88 30 136 85 209 125
165 194 397 213 721 52 870 61 1094 50 1224 -59 670 -366 1279 -751 1490 -129
71 -275 102 -394 86 -87 -13 -225 -85 -308 -160 -166 -152 -238 -360 -238
-685 1 -282 40 -512 190 -1111 168 -666 210 -885 218 -1119 6 -171 -3 -231
-38 -266 -41 -41 -93 -24 -308 99 -109 63 -214 112 -240 112 -5 0 -14 -30 -21
-67 -18 -95 -56 -227 -81 -276 -27 -54 -74 -103 -124 -130 -34 -18 -55 -22
-140 -21 -188 3 -269 59 -311 219 -8 28 -14 67 -14 87 0 20 -3 39 -8 41 -4 3
-89 -86 -190 -198 -169 -188 -187 -206 -240 -226 -75 -29 -152 -29 -217 -1
-41 18 -57 34 -90 85 -108 169 -202 214 -307 148 -26 -16 -98 -81 -160 -143
-120 -120 -191 -173 -279 -210 -46 -19 -72 -22 -184 -23 -196 0 -229 17 -344
188 -56 84 -55 87 27 87 26 0 90 7 142 15 263 43 474 140 611 282 119 123 155
227 146 420 -10 195 -47 340 -141 552 -38 86 -44 107 -34 120 16 19 120 140
479 551 151 173 582 668 958 1100 376 432 696 798 710 813 l26 29 -40 34 c-22
18 -42 34 -45 33 -3 0 -518 -531 -1144 -1180z m-2067 -729 c262 -73 547 -307
630 -517 11 -27 22 -70 26 -96 9 -60 -3 -90 -156 -400 -195 -391 -393 -745
-414 -740 -6 1 -15 49 -22 105 -10 92 -79 673 -163 1382 -17 137 -30 257 -30
268 0 24 35 24 129 -2z m967 -1246 c13 -38 32 -94 43 -124 31 -84 28 -165 -8
-221 -36 -58 -89 -102 -171 -142 -63 -31 -69 -32 -227 -35 -120 -3 -163 -1
-163 8 0 19 48 201 69 263 46 132 124 227 224 272 49 23 181 56 201 51 6 -1
20 -33 32 -72z"/>
<path d="M14085 11291 c-278 -83 -1486 -631 -1869 -848 -106 -60 -245 -122
-581 -260 -553 -226 -775 -356 -957 -562 -92 -103 -175 -295 -166 -380 l3 -29
89 36 c171 68 954 463 1621 817 260 139 367 187 800 365 543 223 873 428 1020
634 72 102 137 248 109 245 -5 0 -36 -8 -69 -18z"/>
<path d="M3445 11039 c-53 -10 -768 -336 -828 -378 -111 -76 -73 -129 69 -96
75 17 704 297 791 351 58 37 87 73 77 98 -3 9 -7 16 -8 16 0 0 -15 4 -31 8
-17 5 -48 5 -70 1z"/>
<path d="M3664 10465 c-13 -20 -15 -44 -12 -123 4 -86 9 -107 46 -193 37 -87
64 -199 48 -199 -33 0 -154 90 -179 134 -7 13 -14 85 -17 183 l-5 163 -35 -18
c-23 -11 -43 -33 -58 -62 -23 -44 -23 -50 -17 -222 l7 -177 -27 -27 c-22 -22
-32 -25 -62 -19 -48 9 -80 31 -101 69 -14 26 -17 59 -16 208 l0 177 -39 -22
c-22 -12 -46 -32 -55 -45 -31 -47 -40 -401 -12 -494 25 -86 101 -132 176 -108
21 7 58 31 83 54 98 88 85 84 135 42 112 -92 222 -89 301 8 78 95 93 202 49
352 -29 101 -104 267 -137 302 -39 42 -54 45 -73 17z"/>
<path d="M1867 8165 c-162 -45 -328 -184 -453 -380 -80 -126 -194 -400 -194
-466 0 -19 4 -18 43 13 23 18 102 90 176 160 214 205 325 267 421 233 92 -32
148 -85 283 -267 88 -118 189 -221 270 -277 181 -123 494 -204 792 -205 138 0
157 2 235 28 164 55 294 134 561 341 201 156 279 210 288 199 5 -5 14 -31 21
-59 7 -27 32 -92 57 -144 53 -111 116 -180 199 -218 50 -23 65 -25 149 -21 82
3 101 8 166 40 89 44 173 117 235 204 48 67 108 195 102 219 -3 13 -70 -5
-218 -60 -70 -26 -217 -17 -293 18 -109 50 -193 162 -247 330 -12 37 -25 67
-28 67 -4 0 -20 -9 -37 -21 -66 -44 -348 -210 -482 -282 -178 -97 -337 -169
-473 -214 -104 -35 -106 -36 -235 -30 -194 8 -322 48 -438 135 -67 51 -121
125 -213 287 -129 228 -231 315 -428 365 -89 23 -188 25 -259 5z"/>
<path d="M1795 7051 c-77 -28 -715 -321 -760 -349 -59 -36 -85 -63 -85 -88 0
-26 17 -34 73 -34 62 1 137 30 509 199 217 99 352 166 378 188 91 78 17 132
-115 84z"/>
<path d="M4442 6748 l3 -132 110 -28 c61 -15 118 -27 129 -25 11 1 30 24 48
57 64 119 2 203 -179 244 -123 27 -114 37 -111 -116z"/>
<path d="M4930 6752 l0 -131 38 -10 c122 -32 202 -51 216 -51 9 0 29 25 47 61
25 50 29 69 24 98 -15 77 -118 137 -268 156 l-57 7 0 -130z"/>
<path d="M9200 1889 c-98 -206 -205 -464 -194 -467 16 -4 70 24 180 93 l89 57
70 -5 c84 -5 107 -16 209 -101 44 -36 83 -66 88 -66 5 0 29 41 53 91 40 82 43
95 38 142 -22 198 -128 273 -410 293 l-102 7 -21 -44z"/>
<path d="M8021 1578 c-129 -20 -234 -132 -276 -295 -20 -76 -19 -176 1 -219
28 -58 56 -73 267 -139 142 -45 219 -93 271 -168 20 -29 74 -146 121 -260 46
-114 98 -232 116 -264 25 -44 114 -163 165 -222 9 -10 14 15 48 234 20 127 39
244 42 261 5 29 3 32 -59 62 -147 73 -232 214 -342 571 -75 242 -107 320 -155
374 -55 63 -106 80 -199 65z"/>
</g>
</svg>
